<svg id="SvgjsSvg1070" width="288" height="288" xmlns="http://www.w3.org/2000/svg" version="1.1" xmlns:xlink="http://www.w3.org/1999/xlink" xmlns:svgjs="http://svgjs.com/svgjs"><defs id="SvgjsDefs1071"></defs><g id="SvgjsG1072"><svg xmlns="http://www.w3.org/2000/svg" viewBox="0 0 256 256" width="288" height="288"><rect width="256" height="256" fill="none"></rect><circle cx="128" cy="128" r="32" fill="#ffffff" class="color000 svgShape"></circle><path d="M172,28H84A56.06353,56.06353,0,0,0,28,84v88a56.06353,56.06353,0,0,0,56,56h88a56.06353,56.06353,0,0,0,56-56V84A56.06353,56.06353,0,0,0,172,28ZM128,176a48,48,0,1,1,48-48A48.05436,48.05436,0,0,1,128,176Zm52-88a12,12,0,1,1,12-12A12,12,0,0,1,180,88Z" fill="#ffffff" class="color000 svgShape"></path></svg></g></svg>