<svg id="SvgjsSvg1026" width="288" height="288" xmlns="http://www.w3.org/2000/svg" version="1.1" xmlns:xlink="http://www.w3.org/1999/xlink" xmlns:svgjs="http://svgjs.com/svgjs"><defs id="SvgjsDefs1027"></defs><g id="SvgjsG1028"><svg xmlns="http://www.w3.org/2000/svg" enable-background="new 0 0 28 22.934" viewBox="0 0 28 22.934" width="288" height="288"><path d="M1.85,1.131c0,0,4.175,5.608,11.859,6.003c0,0-1.046-4.086,2.807-6.343s7.06,1.027,7.06,1.027s1.977-0.33,3.676-1.344c0,0-0.57,2.053-2.472,3.169c0,0,2.053-0.292,3.22-0.862c0,0-1.166,1.876-2.801,2.928c0,0,0.71,11.826-10.597,16.187C6.761,24.92,0,20.375,0,20.375s3.904,0.811,8.366-2.383c0,0-3.574,0.177-5.349-4.081c0,0,1.217,0.33,2.586-0.076c0,0-4.31-0.608-4.563-5.704c0,0,1.546,0.71,2.51,0.684C3.549,8.815-0.533,5.894,1.85,1.131z" fill="#ffffff" class="color000 svgShape"></path></svg></g></svg>